<svg xmlns="http://www.w3.org/2000/svg"  viewBox="0 0 50 50" width="100px" height="100px"><path d="M 6 4 C 4.9069372 4 4 4.9069372 4 6 L 4 44 C 4 45.093063 4.9069372 46 6 46 L 44 46 C 45.093063 46 46 45.093063 46 44 L 46 6 C 46 4.9069372 45.093063 4 44 4 L 6 4 z M 6 6 L 44 6 L 44 44 L 6 44 L 6 6 z M 17.927734 14 L 13 36 L 15.398438 36 L 16.824219 29.566406 L 21.625 29.566406 L 23.015625 36 L 25.447266 36 L 20.648438 14 L 17.927734 14 z M 19.226562 16.439453 L 19.322266 16.439453 C 19.578266 18.039453 19.8675 19.831187 20.1875 21.367188 L 21.322266 27.001953 L 17.228516 27 L 18.330078 21.400391 C 18.650078 19.927391 18.969562 18.071453 19.226562 16.439453 z M 32.523438 20 C 31.17813 20 30.057451 20.488112 29.263672 21.205078 C 28.469892 21.922044 27.983376 22.827552 27.666016 23.6875 C 27.03349 25.40145 27.046792 27.043268 27.046875 27.054688 C 27.029905 27.204186 26.815424 29.168858 27.417969 31.304688 C 27.730838 32.413708 28.27532 33.581344 29.251953 34.492188 C 30.228587 35.40303 31.64003 36 33.417969 36 C 35.531693 36 37.435547 35.033203 37.435547 35.033203 L 36.5625 33.232422 C 36.5625 33.232422 34.886244 34 33.417969 34 C 32.061908 34 31.233476 33.605891 30.615234 33.029297 C 29.996993 32.452703 29.590381 31.635948 29.34375 30.761719 C 29.043205 29.696381 29.004718 28.76114 29.013672 28.066406 L 38 28.066406 L 38 27.066406 C 38 27.066406 38.01347 25.407368 37.378906 23.6875 C 37.061622 22.827566 36.574876 21.922066 35.78125 21.205078 C 34.987624 20.488091 33.868546 20 32.523438 20 z M 32.523438 22 C 33.416829 22 33.975876 22.268878 34.441406 22.689453 C 34.906936 23.110028 35.259612 23.72209 35.501953 24.378906 C 35.806281 25.203725 35.768465 25.549142 35.814453 26.066406 L 29.230469 26.066406 C 29.276469 25.549156 29.238569 25.203707 29.542969 24.378906 C 29.785359 23.722105 30.137858 23.11005 30.603516 22.689453 C 31.069174 22.268857 31.629745 22 32.523438 22 z"/></svg>