<svg id="Layer_1" data-name="Layer 1" xmlns="http://www.w3.org/2000/svg" viewBox="0 0 574.44 558.02"><path d="M332.06,51.6c-45.16,5.66-73.25,12.18-82.15,19.45l-5.38,4.23,6.36,4c4.91,3.26,13.34,4.23,45.39,5.15,83.08,2,120.07,13.29,120.07,36.71,0,4.91-3.5,15.22-8.65,25.28-11.76,22.94-50.14,61.55-97.88,98.52-39.32,30.44-44,34.86-42.83,40.95,1.64,7.49,17.09,4.23,45.16-9.59,75.6-37.2,144.4-99.47,159.37-144.58,5.86-17.56,3.75-36.74-5.14-48C457.49,72.22,434.79,61,410.69,56.05,392,52.3,347.49,49.73,332.06,51.6Z" transform="translate(-52.42 -50.98)"/><path d="M489.54,239.76c-51,5.66-83.7,28.08-83.53,57.1,0,24.1,14.27,46.81,70.66,113.5C522.33,464.67,531,482,519,495.54c-10.29,11.44-26.62,13.82-146.5,19.9-37.67,2.1-45.16,4-45.16,11.23,0,5.39,12.17,9.84,37.68,13.58,84.72,12.45,158.91,9.82,192.13-7,11-5.39,22.47-16.85,28.08-27.62,3.52-7,4.44-12.44,3.74-22.23-1.86-24.1-15.44-44.7-73.24-111.16-40-46.11-51.24-67.65-41.43-80.74,9.6-13.11,24.34-15.92,92.92-18.72,56.39-2.11,66.46-4.69,55.93-15.22C611.71,246.07,529.81,235.08,489.54,239.76Z" transform="translate(-52.42 -50.98)"/><path d="M186.72,320.49c-38.38,5.66-67.64,15-67.64,22,0,7.25,8.45,8.45,66.45,10.07,77.94,1.87,102.5,6.76,118.42,24.1,4.91,5.37,5.85,8.45,5.85,20.59-.23,11.94-1.64,17.09-8.19,29.71-9.83,18.27-44.47,54.32-70.18,73-34.93,25.28-75.13,45.17-88.71,43.53-5.66-.7-6.09-1.64-5.85-11.46,0-13.11,9.12-33,39.55-86.36,12.16-21.3,23.16-42.12,24.8-46.33,5.85-16.85-4.45-19.45-19.89-5.15C155.11,418.54,74.61,545.14,55.9,591.48c-6.57,16.85-4.93,18.95,14.5,16.85C106,604.58,185.31,573,238.2,541.16c64.35-38.38,112.1-88.46,130.35-136.43,16.85-44.93-7.73-72.31-76.1-84.25C268.86,316.28,215.27,316.28,186.72,320.49Z" transform="translate(-52.42 -50.98)"/></svg>