<svg id="Layer_1" data-name="Layer 1" xmlns="http://www.w3.org/2000/svg" viewBox="0 0 1046.4 660"><path d="M517.28.55c-39.91,5-64.73,10.76-72.59,17.17l-4.76,3.72L445.52,25c4.34,2.89,11.79,3.72,40.12,4.55C559.06,31.37,591.74,41.3,591.74,62c0,4.34-3.1,13.44-7.65,22.34-10.34,20.26-44.26,54.39-86.45,87.07-34.75,26.88-38.89,30.81-37.85,36.19,1.45,6.62,15.1,3.72,39.91-8.48,66.81-32.88,127.61-87.9,140.85-127.81,5.17-15.52,3.31-32.47-4.55-42.4-7.86-10.14-27.92-20.06-49.22-24.41C570.23,1.17,530.93-1.1,517.28.55Z"/><path d="M656.47,166.84c-45.08,5-74,24.82-73.83,50.46,0,21.3,12.62,41.37,62.46,100.31,40.33,48,48,63.29,37.43,75.28C673.43,403,659,405.1,553.06,410.47c-33.29,1.86-39.91,3.52-39.91,9.93,0,4.76,10.75,8.69,33.3,12,74.87,11,140.43,8.68,169.8-6.21,9.72-4.76,19.85-14.89,24.81-24.4,3.11-6.21,3.93-11,3.31-19.65-1.65-21.3-13.65-39.5-64.73-98.24-35.37-40.75-45.29-59.77-36.61-71.36,8.48-11.58,21.51-14.06,82.11-16.54,49.84-1.86,58.74-4.14,49.43-13.44C764.44,172.42,692.05,162.7,656.47,166.84Z"/><path d="M388.85,238.19c-33.92,5-59.77,13.24-59.77,19.44,0,6.41,7.44,7.45,58.73,8.9,68.88,1.65,90.59,6,104.66,21.3,4.34,4.75,5.17,7.44,5.17,18.2-.21,10.55-1.45,15.1-7.24,26.26-8.69,16.14-39.3,48-62,64.53C397.53,419.16,362,436.74,350,435.29c-5-.62-5.38-1.45-5.17-10.13,0-11.59,8.06-29.16,34.95-76.32,10.75-18.82,20.47-37.23,21.92-40.95,5.17-14.89-3.93-17.17-17.58-4.55-23.16,21.51-94.31,133.4-110.85,174.35-5.8,14.89-4.35,16.75,12.82,14.89,31.44-3.31,101.55-31.23,148.29-59.36,56.87-33.92,99.07-78.18,115.2-120.57,14.89-39.71-6.83-63.91-67.22-74.46C461.44,234.47,414.08,234.47,388.85,238.19Z"/><path d="M30.69,545.52C14.51,554,9.43,577.07,21,589.36c1.41,1.53,11.81,9.21,23,17.13S65.2,621.73,66.14,623c1.89,2.72,1.06,6.26-2.13,8.51-2,1.42-7.44,1.77-27.64,1.77-29.78,0-28.72-.47-28.72,12.53v8.74H37c31.43-.12,34.5-.59,42.18-6.38,6.5-5,10.28-12.53,11-22,.47-7.09.12-9-2.6-14.53-2.84-5.91-4.73-7.56-26.11-22.81C43,575.77,38.37,572,38.37,569.74c0-4.25,4.14-5,30.13-5H92.61L95,561.71c1.89-2.48,2.48-4.85,2.48-10.64v-7.56H65.91C39.44,543.63,33.65,543.87,30.69,545.52Z"/><path d="M155.71,545.28c-17.49,4.85-28.95,13.59-38.52,29.19-6.38,10.51-9.1,20.56-9.93,35.8-.47,10-.24,14.65,1.18,19.5,5.91,20.08,20.92,29.65,46.32,29.89,27.65.12,48.56-12.17,59.67-35,6.5-13.59,8.62-23.4,8-38.64-.35-10.64-.82-13.35-3.54-19-4.37-8.74-10.63-14.77-19.85-19.26-7.09-3.3-8.74-3.66-22.45-3.89C166.34,543.63,160,544.1,155.71,545.28Zm28.83,18.44a22.88,22.88,0,0,1,7.79,5.79c5.79,6.38,7.57,14.77,5.79,27.53-3,21.86-9.57,34-22.09,40.41-6.15,3.07-8.15,3.54-17,3.54-13.11,0-20.44-3.31-24.93-11.34-2.6-4.61-3-6.5-3-17,.12-26.7,12.52-47.38,30-49.62,3-.48,6-1,6.62-1.18C169.53,561.12,180.16,562.42,184.54,563.72Z"/><path d="M250,549.66c-.7,3.42-3.07,16.3-5.31,28.71s-6.26,34.15-9,48.44S231,653.16,231,653.75s17.73.71,39.35.59l39.23-.35,1.06-6.85c.83-5,.71-7.21-.35-8.28s-8.87-1.53-26.59-1.77l-25.17-.35,2.13-12c1.18-6.62,4.84-26.83,8.15-45s5.79-33.68,5.44-34.5c-.48-1.3-3.43-1.66-11.82-1.66H251.18Z"/><path d="M345.11,545.52c-.71,2.72-19.61,106.34-19.61,107.88,0,.82,4.37,1.18,12.05.94L349.6,654l1.54-7.68c7.8-41.59,18.08-100.79,17.49-101.62s-5.68-1.18-11.82-1.18C347.24,543.51,345.7,543.75,345.11,545.52Z"/><path d="M389.89,545.87c-1.18,3.79.36,10,3.08,12.53,2.24,2,5.19,2.24,32.25,2.83,19.26.36,30.49,1.07,32,2,7.8,4.49,10.64,12.06,9.69,26.83-1.06,18.78-8.39,34.73-19.61,42.65-5,3.54-5.32,3.54-22.45,3.9l-17.49.35,5-27.65c2.84-15.12,5.44-29.3,5.91-31.31l.83-3.78H408c-6,0-11.58.47-12.4.95s-3.31,11-5.56,23.27-5.43,29.78-7.09,38.76-3.07,16.66-3.07,16.9,15,.47,33.44.23c31.66-.47,33.67-.59,40.41-3.19,20.56-8.15,32.61-23.16,38.52-48,3.19-13.59,2.83-30.25-1-38.52-3.19-7.21-9.92-13.7-18-17.49l-6.61-3.07-38.05-.35C390.72,543.39,390.72,543.39,389.89,545.87Z"/><path d="M515.73,599.64v56.12h5.91c11.22,0,10.28,1.06,31.9-37.81,13.71-24.58,12.76-23,13.47-22.33s10.52,46.55,11.94,55.06l.82,5.08H585A22.41,22.41,0,0,0,593.6,654c3.66-1.77,3.9-2.36,15.48-28.36,4.37-9.81,13.82-31.19,21.26-47.73,14.42-32.38,14.66-33.44,7-34.15l-4-.36-5.56,12.76c-19.85,45.61-37.1,83.9-38.16,84.37-.59.23-1.54-1.89-2.13-4.85-4-21.62-10.87-49.39-12.4-51.16s-3.31-2-7.8-1.77l-5.91.35-16.9,29.43c-9.33,16.18-16.89,28.94-16.89,28.35s-.12-22,0-47.5c.12-33.91-.24-47-1.3-48.2-.71-.95-3.43-1.66-5.91-1.66h-4.61Z"/><path d="M690.13,544.81c-14.41,3.43-31.31,17.72-38.75,33-7,14.29-9.57,25.4-9,39.46.35,9.93,1.06,13.12,3.9,19.38a40.86,40.86,0,0,0,21.62,20.56c9.45,3.78,28.36,3.78,38.28-.12,20.92-8.15,34.74-25.29,41.24-50.93,7.32-28.83-4.14-53.88-27.77-60.85C713.29,543.39,697.46,543.16,690.13,544.81Zm30.6,13.12c7.45,3.78,10.28,6.85,14.07,15.12,7.79,16.66.59,47-14.89,62.86-13.12,13.47-36,17.37-51.16,8.63-11-6.38-15.37-15.25-15.13-30.73.24-28.23,17.13-52.69,40.17-58.48C701.71,553.44,714.12,554.62,720.73,557.93Z"/><path d="M775.32,560.76C771.9,579.55,760,644,758.55,651.27l-.83,4.49h6c3.31,0,6-.24,6-.59,0-.83,6.85-40.29,7.8-44.66l.71-3.19h23l14.06,24.22,14.06,24.34,4.73-.36c3.42-.23,4.84-.94,5.08-2.48.23-1.06-5.2-11.81-12.06-23.63s-12.52-22-12.52-22.33,2.36-1,5.32-1.3c17.48-2.48,32.49-19,32.49-36.16,0-11.46-4.25-18.19-14.65-22.68-5.55-2.48-8.15-2.72-32.61-3.19l-26.71-.48Zm54-4.13a22.71,22.71,0,0,1,8,4.6c5.9,6,3.78,18.32-4.61,26.24-7.21,6.85-13.35,8.5-33.68,9-10.28.23-18.67.11-18.67-.24s1.66-9.57,3.55-20.44,3.54-19.73,3.54-20C787.49,554.74,825.19,555.45,829.32,556.63Z"/><path d="M878.12,574.59c-3.19,17-7.8,42.06-10.4,55.65s-4.61,24.93-4.61,25.17,2.6.35,5.79.35h5.79l1.19-5.67c.59-3.07,2.6-14.18,4.49-24.81s3.66-19,4.13-18.91,10.75,11.23,23,24.58c17.61,19.26,22.92,24.34,25.64,24.57,3.55.48,6.74-1.41,6.74-4,0-.83-9.22-11.58-20.33-23.87s-21.38-23.28-22.56-24.7c-2.13-2.48-1.89-2.71,27.53-27.64,25.76-22,29.65-25.53,29.3-28.24-.35-2.49-1.06-3-4.49-3.31-3.9-.36-6.14,1.3-33.08,24.46-16,13.58-29.07,24.57-29.31,24.34s1.42-10.4,3.43-22.81c4.13-24.93,4-26.23-2.95-26.23h-3.67Z"/><path d="M983.64,545.4c-7.92,3.43-12.29,9.93-13.71,20.21-1.3,10.51,1.77,15.36,23.87,36.86,10.63,10.4,20.2,20.68,21.27,22.92a12.48,12.48,0,0,1-3.19,15.48c-3.67,3.08-3.67,3.08-26.94,3.08-16.55,0-23.64.35-24.7,1.41-.83.83-1.42,3.43-1.42,5.91v4.49H983.4c13.82,0,26.47-.59,29.18-1.3,6.62-1.77,12.06-7.44,14.18-14.53,4.49-15.13,1.54-21-22.45-44.19-9.92-9.57-19.26-19.38-20.67-21.86-3.43-5.79-2.49-11.35,2.48-15.48,3.54-3.07,3.66-3.07,26.58-3.07,13.71,0,24-.48,25.41-1.18,1.65-.95,2.24-2.49,2.24-5.91v-4.73h-26.23C993.32,543.63,986.94,544,983.64,545.4Z"/></svg>